<svg width="1190" height="773" viewBox="0 0 1190 773" fill="none" xmlns="http://www.w3.org/2000/svg">
<path d="M51.4258 414.6C92.2258 407 112.626 386 112.626 351.6C112.626 336.4 110.626 310.4 106.626 273.6C102.626 234.4 100.626 206 100.626 188.4C100.626 159.6 108.626 137.6 124.626 122.4C141.026 107.2 162.826 99.6 190.026 99.6H224.826V147H200.226C184.626 147 173.026 150.6 165.426 157.8C157.826 164.6 154.026 176 154.026 192C154.026 203.6 154.826 218 156.426 235.2C158.026 252 159.026 263.4 159.426 269.4C163.426 307.8 165.426 335.8 165.426 353.4C165.426 374.6 160.026 392.4 149.226 406.8C138.826 420.8 122.626 430.2 100.626 435V436.2C122.626 441 138.826 450.6 149.226 465C160.026 479.4 165.426 497.2 165.426 518.4C165.426 536 163.426 564 159.426 602.4C159.026 608.4 158.026 620 156.426 637.2C154.826 654 154.026 668.2 154.026 679.8C154.026 695.8 157.826 707.2 165.426 714C173.026 721.2 184.626 724.8 200.226 724.8H224.826V772.2H190.026C162.826 772.2 141.026 764.6 124.626 749.4C108.626 734.2 100.626 712.2 100.626 683.4C100.626 665.8 102.626 637.4 106.626 598.2C110.626 561.4 112.626 535.4 112.626 520.2C112.626 485.8 92.2258 464.8 51.4258 457.2V414.6Z" fill="black"/>
<path d="M1138.63 457.2C1097.83 464.8 1077.43 485.8 1077.43 520.2C1077.43 535.4 1079.43 561.4 1083.43 598.2C1087.43 637.4 1089.43 665.8 1089.43 683.4C1089.43 712.2 1081.23 734.2 1064.83 749.4C1048.83 764.6 1027.23 772.2 1000.03 772.2H965.226V724.8H989.826C1005.43 724.8 1017.03 721.2 1024.63 714C1032.23 707.2 1036.03 695.8 1036.03 679.8C1036.03 668.2 1035.23 654 1033.63 637.2C1032.03 620 1031.03 608.4 1030.63 602.4C1026.63 564 1024.63 536 1024.63 518.4C1024.63 497.2 1029.83 479.4 1040.23 465C1051.03 450.6 1067.43 441 1089.43 436.2V435C1067.43 430.2 1051.03 420.8 1040.23 406.8C1029.83 392.4 1024.63 374.6 1024.63 353.4C1024.63 335.8 1026.63 307.8 1030.63 269.4C1031.03 263.4 1032.03 252 1033.63 235.2C1035.23 218 1036.03 203.6 1036.03 192C1036.03 176 1032.23 164.6 1024.63 157.8C1017.03 150.6 1005.43 147 989.826 147H965.226V99.6H1000.03C1027.23 99.6 1048.83 107.2 1064.83 122.4C1081.23 137.6 1089.43 159.6 1089.43 188.4C1089.43 206 1087.43 234.4 1083.43 273.6C1079.43 310.4 1077.43 336.4 1077.43 351.6C1077.43 386 1097.83 407 1138.63 414.6V457.2Z" fill="black"/>
<path d="M345 702C303.517 702 269.409 670.427 265.395 630H915.605C911.591 670.427 877.483 702 836 702H589H345Z" stroke="black" stroke-width="40"/>
<path d="M393 330H785.653V472C785.653 549.32 722.973 612 645.653 612H533C455.68 612 393 549.32 393 472V330Z" stroke="black" stroke-width="40"/>
<path d="M913.177 434.773C888.12 499.891 834.195 521.5 792.168 521.5C784.92 521.5 782.188 520.365 781.467 519.971C781.214 519.401 780.561 517.446 780.536 512.52C780.503 506.055 781.472 498.181 782.792 487.451C782.961 486.07 783.137 484.643 783.317 483.164C784.821 470.818 786.445 456.127 786.445 440C786.445 424.874 786.46 411.586 787.551 399.697C788.642 387.804 790.71 378.752 794.021 371.926C797.111 365.558 801.407 360.831 808.11 357.397C815.224 353.752 826.187 351 843.3 351C855.727 351 867.337 351.031 878.041 352.509C888.708 353.982 896.756 356.697 902.537 360.886C911.856 367.638 922.867 384.319 913.177 434.773ZM781.255 519.838C781.256 519.837 781.268 519.846 781.291 519.865C781.266 519.848 781.254 519.838 781.255 519.838ZM781.555 520.148C781.562 520.157 781.565 520.163 781.565 520.163C781.564 520.163 781.561 520.158 781.555 520.148Z" stroke="black" stroke-width="38"/>
<path d="M463.128 119C441.235 124.971 439.114 153.987 451.792 168.477C463.1 181.399 472.671 196.286 481.049 211.367C497.382 240.766 474.953 257.841 449.341 270.647" stroke="black" stroke-width="30" stroke-linecap="round"/>
<path d="M715.128 119C693.235 124.971 691.114 153.987 703.792 168.477C715.1 181.399 724.671 196.286 733.049 211.367C749.382 240.766 726.953 257.841 701.341 270.647" stroke="black" stroke-width="30" stroke-linecap="round"/>
<path d="M589.128 119C567.235 124.971 565.114 153.987 577.792 168.477C589.1 181.399 598.671 196.286 607.049 211.367C623.382 240.766 600.953 257.841 575.341 270.647" stroke="black" stroke-width="30" stroke-linecap="round"/>
</svg>
