<svg width="2491" height="773" viewBox="0 0 2491 773" fill="none" xmlns="http://www.w3.org/2000/svg">
<path d="M51.4258 414.6C92.2258 407 112.626 386 112.626 351.6C112.626 336.4 110.626 310.4 106.626 273.6C102.626 234.4 100.626 206 100.626 188.4C100.626 159.6 108.626 137.6 124.626 122.4C141.026 107.2 162.826 99.6 190.026 99.6H224.826V147H200.226C184.626 147 173.026 150.6 165.426 157.8C157.826 164.6 154.026 176 154.026 192C154.026 203.6 154.826 218 156.426 235.2C158.026 252 159.026 263.4 159.426 269.4C163.426 307.8 165.426 335.8 165.426 353.4C165.426 374.6 160.026 392.4 149.226 406.8C138.826 420.8 122.626 430.2 100.626 435V436.2C122.626 441 138.826 450.6 149.226 465C160.026 479.4 165.426 497.2 165.426 518.4C165.426 536 163.426 564 159.426 602.4C159.026 608.4 158.026 620 156.426 637.2C154.826 654 154.026 668.2 154.026 679.8C154.026 695.8 157.826 707.2 165.426 714C173.026 721.2 184.626 724.8 200.226 724.8H224.826V772.2H190.026C162.826 772.2 141.026 764.6 124.626 749.4C108.626 734.2 100.626 712.2 100.626 683.4C100.626 665.8 102.626 637.4 106.626 598.2C110.626 561.4 112.626 535.4 112.626 520.2C112.626 485.8 92.2258 464.8 51.4258 457.2V414.6Z" fill="black"/>
<path d="M1138.63 457.2C1097.83 464.8 1077.43 485.8 1077.43 520.2C1077.43 535.4 1079.43 561.4 1083.43 598.2C1087.43 637.4 1089.43 665.8 1089.43 683.4C1089.43 712.2 1081.23 734.2 1064.83 749.4C1048.83 764.6 1027.23 772.2 1000.03 772.2H965.226V724.8H989.826C1005.43 724.8 1017.03 721.2 1024.63 714C1032.23 707.2 1036.03 695.8 1036.03 679.8C1036.03 668.2 1035.23 654 1033.63 637.2C1032.03 620 1031.03 608.4 1030.63 602.4C1026.63 564 1024.63 536 1024.63 518.4C1024.63 497.2 1029.83 479.4 1040.23 465C1051.03 450.6 1067.43 441 1089.43 436.2V435C1067.43 430.2 1051.03 420.8 1040.23 406.8C1029.83 392.4 1024.63 374.6 1024.63 353.4C1024.63 335.8 1026.63 307.8 1030.63 269.4C1031.03 263.4 1032.03 252 1033.63 235.2C1035.23 218 1036.03 203.6 1036.03 192C1036.03 176 1032.23 164.6 1024.63 157.8C1017.03 150.6 1005.43 147 989.826 147H965.226V99.6H1000.03C1027.23 99.6 1048.83 107.2 1064.83 122.4C1081.23 137.6 1089.43 159.6 1089.43 188.4C1089.43 206 1087.43 234.4 1083.43 273.6C1079.43 310.4 1077.43 336.4 1077.43 351.6C1077.43 386 1097.83 407 1138.63 414.6V457.2Z" fill="black"/>
<rect x="1221" y="153" width="1239" height="40" fill="black"/>
<rect x="1221" y="678" width="1239" height="40" fill="black"/>
<path d="M1227.63 586V481.84H1257.07C1267.09 481.84 1275.84 483.653 1283.31 487.28C1290.88 490.8 1296.8 496.347 1301.07 503.92C1305.33 511.493 1307.47 521.36 1307.47 533.52C1307.47 545.573 1305.33 555.493 1301.07 563.28C1296.91 571.067 1291.15 576.827 1283.79 580.56C1276.43 584.187 1268 586 1258.51 586H1227.63ZM1253.23 565.52H1255.63C1260.64 565.52 1265.07 564.56 1268.91 562.64C1272.75 560.613 1275.73 557.307 1277.87 552.72C1280.11 548.133 1281.23 541.733 1281.23 533.52C1281.23 525.307 1280.11 518.96 1277.87 514.48C1275.73 510 1272.75 506.853 1268.91 505.04C1265.07 503.227 1260.64 502.32 1255.63 502.32H1253.23V565.52ZM1326.92 586V481.84H1396.84V503.28H1352.52V521.84H1390.28V543.28H1352.52V564.56H1398.44V586H1326.92ZM1456.3 587.92C1449.37 587.92 1442.38 586.693 1435.34 584.24C1428.41 581.68 1422.06 577.893 1416.3 572.88L1430.86 555.44C1434.91 558.533 1439.23 561.04 1443.82 562.96C1448.51 564.88 1453.26 565.84 1458.06 565.84C1462.65 565.84 1465.95 565.147 1467.98 563.76C1470.11 562.267 1471.18 560.453 1471.18 558.32C1471.18 556.08 1470.54 554.32 1469.26 553.04C1468.09 551.653 1466.33 550.48 1463.98 549.52C1461.63 548.453 1458.86 547.28 1455.66 546L1442.38 540.4C1438.43 538.907 1434.75 536.88 1431.34 534.32C1428.03 531.76 1425.37 528.613 1423.34 524.88C1421.31 521.04 1420.3 516.613 1420.3 511.6C1420.3 505.733 1421.9 500.453 1425.1 495.76C1428.41 490.96 1432.99 487.12 1438.86 484.24C1444.73 481.36 1451.55 479.92 1459.34 479.92C1465.53 479.92 1471.66 481.093 1477.74 483.44C1483.93 485.68 1489.47 489.093 1494.38 493.68L1481.58 509.84C1477.85 507.28 1474.22 505.36 1470.7 504.08C1467.18 502.693 1462.91 502 1457.9 502C1454.49 502 1451.66 502.693 1449.42 504.08C1447.29 505.36 1446.22 507.387 1446.22 510.16C1446.22 511.973 1446.86 513.52 1448.14 514.8C1449.53 515.973 1451.45 517.093 1453.9 518.16C1456.46 519.12 1459.45 520.24 1462.86 521.52L1475.18 526.64C1479.87 528.347 1483.82 530.533 1487.02 533.2C1490.33 535.76 1492.83 538.853 1494.54 542.48C1496.35 546 1497.26 550.213 1497.26 555.12C1497.26 560.987 1495.66 566.427 1492.46 571.44C1489.37 576.347 1484.78 580.347 1478.7 583.44C1472.62 586.427 1465.15 587.92 1456.3 587.92ZM1518.8 586V481.84H1588.72V503.28H1544.4V521.84H1582.16V543.28H1544.4V564.56H1590.32V586H1518.8ZM1610.74 586V481.84H1636.82L1656.5 530.96L1665.14 554.16H1665.78C1665.14 548.507 1664.39 542.213 1663.54 535.28C1662.68 528.24 1662.26 521.573 1662.26 515.28V481.84H1686.58V586H1660.5L1640.82 536.72L1632.18 513.68H1631.54C1632.18 519.547 1632.92 525.947 1633.78 532.88C1634.63 539.707 1635.06 546.213 1635.06 552.4V586H1610.74ZM1729.23 586L1698.03 481.84H1725.07L1736.91 528.88C1738.41 534.533 1739.74 540.08 1740.91 545.52C1742.09 550.853 1743.42 556.347 1744.91 562H1745.55C1747.05 556.347 1748.38 550.853 1749.55 545.52C1750.73 540.08 1752.06 534.533 1753.55 528.88L1764.91 481.84H1791.15L1759.95 586H1729.23ZM1840.53 587.92C1832.21 587.92 1824.85 585.893 1818.45 581.84C1812.16 577.68 1807.2 571.6 1803.57 563.6C1800.05 555.493 1798.29 545.467 1798.29 533.52C1798.29 521.787 1800.05 511.973 1803.57 504.08C1807.2 496.08 1812.16 490.053 1818.45 486C1824.85 481.947 1832.21 479.92 1840.53 479.92C1848.85 479.92 1856.16 481.947 1862.45 486C1868.85 490.053 1873.81 496.08 1877.33 504.08C1880.96 511.973 1882.77 521.787 1882.77 533.52C1882.77 545.467 1880.96 555.493 1877.33 563.6C1873.81 571.6 1868.85 577.68 1862.45 581.84C1856.16 585.893 1848.85 587.92 1840.53 587.92ZM1840.53 565.84C1843.84 565.84 1846.66 564.667 1849.01 562.32C1851.46 559.867 1853.33 556.24 1854.61 551.44C1856 546.64 1856.69 540.667 1856.69 533.52C1856.69 526.587 1856 520.773 1854.61 516.08C1853.33 511.387 1851.46 507.867 1849.01 505.52C1846.66 503.173 1843.84 502 1840.53 502C1837.22 502 1834.34 503.173 1831.89 505.52C1829.54 507.867 1827.68 511.387 1826.29 516.08C1825.01 520.773 1824.37 526.587 1824.37 533.52C1824.37 540.667 1825.01 546.64 1826.29 551.44C1827.68 556.24 1829.54 559.867 1831.89 562.32C1834.34 564.667 1837.22 565.84 1840.53 565.84ZM1904.63 586V481.84H1930.23V564.56H1975.51V586H1904.63ZM2017.05 586L1985.85 481.84H2012.89L2024.73 528.88C2026.22 534.533 2027.55 540.08 2028.73 545.52C2029.9 550.853 2031.23 556.347 2032.73 562H2033.37C2034.86 556.347 2036.19 550.853 2037.37 545.52C2038.54 540.08 2039.87 534.533 2041.37 528.88L2052.73 481.84H2078.97L2047.77 586H2017.05ZM2094.42 586V481.84H2164.34V503.28H2120.02V521.84H2157.78V543.28H2120.02V564.56H2165.94V586H2094.42ZM2187 586V481.84H2216.44C2226.47 481.84 2235.21 483.653 2242.68 487.28C2250.25 490.8 2256.17 496.347 2260.44 503.92C2264.71 511.493 2266.84 521.36 2266.84 533.52C2266.84 545.573 2264.71 555.493 2260.44 563.28C2256.28 571.067 2250.52 576.827 2243.16 580.56C2235.8 584.187 2227.37 586 2217.88 586H2187ZM2212.6 565.52H2215C2220.01 565.52 2224.44 564.56 2228.28 562.64C2232.12 560.613 2235.11 557.307 2237.24 552.72C2239.48 548.133 2240.6 541.733 2240.6 533.52C2240.6 525.307 2239.48 518.96 2237.24 514.48C2235.11 510 2232.12 506.853 2228.28 505.04C2224.44 503.227 2220.01 502.32 2215 502.32H2212.6V565.52ZM2320.22 587.92C2311.9 587.92 2304.54 585.893 2298.14 581.84C2291.85 577.68 2286.89 571.6 2283.26 563.6C2279.74 555.493 2277.98 545.467 2277.98 533.52C2277.98 521.787 2279.74 511.973 2283.26 504.08C2286.89 496.08 2291.85 490.053 2298.14 486C2304.54 481.947 2311.9 479.92 2320.22 479.92C2328.54 479.92 2335.85 481.947 2342.14 486C2348.54 490.053 2353.5 496.08 2357.02 504.08C2360.65 511.973 2362.46 521.787 2362.46 533.52C2362.46 545.467 2360.65 555.493 2357.02 563.6C2353.5 571.6 2348.54 577.68 2342.14 581.84C2335.85 585.893 2328.54 587.92 2320.22 587.92ZM2320.22 565.84C2323.53 565.84 2326.35 564.667 2328.7 562.32C2331.15 559.867 2333.02 556.24 2334.3 551.44C2335.69 546.64 2336.38 540.667 2336.38 533.52C2336.38 526.587 2335.69 520.773 2334.3 516.08C2333.02 511.387 2331.15 507.867 2328.7 505.52C2326.35 503.173 2323.53 502 2320.22 502C2316.91 502 2314.03 503.173 2311.58 505.52C2309.23 507.867 2307.37 511.387 2305.98 516.08C2304.7 520.773 2304.06 526.587 2304.06 533.52C2304.06 540.667 2304.7 546.64 2305.98 551.44C2307.37 556.24 2309.23 559.867 2311.58 562.32C2314.03 564.667 2316.91 565.84 2320.22 565.84ZM2378.4 586V481.84H2416.32C2423.68 481.84 2430.45 482.853 2436.64 484.88C2442.82 486.8 2447.78 490.16 2451.52 494.96C2455.25 499.76 2457.12 506.427 2457.12 514.96C2457.12 523.067 2455.25 529.68 2451.52 534.8C2447.78 539.92 2442.82 543.707 2436.64 546.16C2430.45 548.613 2423.68 549.84 2416.32 549.84H2403.84V586H2378.4ZM2403.84 529.52H2414.4C2420.16 529.52 2424.53 528.293 2427.52 525.84C2430.61 523.387 2432.16 519.76 2432.16 514.96C2432.16 510.053 2430.61 506.693 2427.52 504.88C2424.53 503.067 2420.16 502.16 2414.4 502.16H2403.84V529.52ZM2411.68 543.12L2429.12 526.48L2462.56 586H2434.08L2411.68 543.12Z" fill="black"/>
<path d="M1516.42 389V284.68H1553.38C1560.74 284.68 1567.46 285.693 1573.54 287.72C1579.62 289.64 1584.47 293 1588.1 297.8C1591.83 302.493 1593.7 308.947 1593.7 317.16C1593.7 325.16 1591.83 331.667 1588.1 336.68C1584.47 341.693 1579.62 345.427 1573.54 347.88C1567.46 350.227 1560.74 351.4 1553.38 351.4H1539.94V389H1516.42ZM1539.94 332.68H1551.46C1557.65 332.68 1562.34 331.4 1565.54 328.84C1568.85 326.173 1570.5 322.28 1570.5 317.16C1570.5 312.04 1568.85 308.467 1565.54 306.44C1562.34 304.413 1557.65 303.4 1551.46 303.4H1539.94V332.68ZM1549.06 345.32L1565.38 330.12L1598.66 389H1572.26L1549.06 345.32ZM1649.16 390.92C1640.84 390.92 1633.53 388.84 1627.24 384.68C1620.94 380.52 1616.04 374.44 1612.52 366.44C1609 358.333 1607.24 348.307 1607.24 336.36C1607.24 324.733 1609 314.973 1612.52 307.08C1616.04 299.08 1620.94 293.053 1627.24 289C1633.53 284.84 1640.84 282.76 1649.16 282.76C1657.48 282.76 1664.78 284.84 1671.08 289C1677.37 293.053 1682.28 299.08 1685.8 307.08C1689.32 314.973 1691.08 324.733 1691.08 336.36C1691.08 348.307 1689.32 358.333 1685.8 366.44C1682.28 374.44 1677.37 380.52 1671.08 384.68C1664.78 388.84 1657.48 390.92 1649.16 390.92ZM1649.16 370.6C1652.78 370.6 1655.93 369.32 1658.6 366.76C1661.26 364.093 1663.29 360.253 1664.68 355.24C1666.17 350.12 1666.92 343.827 1666.92 336.36C1666.92 329.107 1666.17 323.027 1664.68 318.12C1663.29 313.213 1661.26 309.48 1658.6 306.92C1655.93 304.36 1652.78 303.08 1649.16 303.08C1645.53 303.08 1642.38 304.36 1639.72 306.92C1637.05 309.48 1634.97 313.213 1633.48 318.12C1632.09 323.027 1631.4 329.107 1631.4 336.36C1631.4 343.827 1632.09 350.12 1633.48 355.24C1634.97 360.253 1637.05 364.093 1639.72 366.76C1642.38 369.32 1645.53 370.6 1649.16 370.6ZM1708.29 389V284.68H1737.09C1747.23 284.68 1756.03 286.493 1763.49 290.12C1771.07 293.747 1776.93 299.4 1781.09 307.08C1785.25 314.653 1787.33 324.413 1787.33 336.36C1787.33 348.307 1785.25 358.173 1781.09 365.96C1777.04 373.747 1771.33 379.56 1763.97 383.4C1756.61 387.133 1748.13 389 1738.53 389H1708.29ZM1731.97 369.96H1735.81C1741.36 369.96 1746.16 368.893 1750.21 366.76C1754.27 364.627 1757.41 361.107 1759.65 356.2C1762 351.293 1763.17 344.68 1763.17 336.36C1763.17 328.04 1762 321.533 1759.65 316.84C1757.41 312.04 1754.27 308.68 1750.21 306.76C1746.16 304.733 1741.36 303.72 1735.81 303.72H1731.97V369.96ZM1804.23 389V284.68H1841.19C1848.55 284.68 1855.27 285.693 1861.35 287.72C1867.43 289.64 1872.28 293 1875.91 297.8C1879.64 302.493 1881.51 308.947 1881.51 317.16C1881.51 325.16 1879.64 331.667 1875.91 336.68C1872.28 341.693 1867.43 345.427 1861.35 347.88C1855.27 350.227 1848.55 351.4 1841.19 351.4H1827.75V389H1804.23ZM1827.75 332.68H1839.27C1845.46 332.68 1850.15 331.4 1853.35 328.84C1856.66 326.173 1858.31 322.28 1858.31 317.16C1858.31 312.04 1856.66 308.467 1853.35 306.44C1850.15 304.413 1845.46 303.4 1839.27 303.4H1827.75V332.68ZM1836.87 345.32L1853.19 330.12L1886.47 389H1860.07L1836.87 345.32ZM1900.81 389V369.16H1925.13V304.52H1900.81V284.68H1973.13V304.52H1948.81V369.16H1973.13V389H1900.81ZM2039.79 390.92C2030.93 390.92 2022.88 388.947 2015.63 385C2008.37 380.947 2002.61 374.973 1998.35 367.08C1994.08 359.08 1991.95 349.213 1991.95 337.48C1991.95 325.853 1994.08 315.987 1998.35 307.88C2002.61 299.667 2008.37 293.427 2015.63 289.16C2022.99 284.893 2031.15 282.76 2040.11 282.76C2047.15 282.76 2053.17 284.147 2058.19 286.92C2063.2 289.587 2067.36 292.627 2070.67 296.04L2057.71 310.6C2055.47 308.36 2053.01 306.547 2050.35 305.16C2047.68 303.773 2044.27 303.08 2040.11 303.08C2035.63 303.08 2031.57 304.467 2027.95 307.24C2024.32 309.907 2021.44 313.747 2019.31 318.76C2017.28 323.773 2016.27 329.747 2016.27 336.68C2016.27 343.827 2017.17 349.96 2018.99 355.08C2020.8 360.093 2023.57 363.933 2027.31 366.6C2031.04 369.267 2035.63 370.6 2041.07 370.6C2043.09 370.6 2045.01 370.333 2046.83 369.8C2048.75 369.267 2050.24 368.467 2051.31 367.4V349.48H2036.11V330.28H2072.43V378.28C2068.91 381.587 2064.21 384.52 2058.35 387.08C2052.59 389.64 2046.4 390.92 2039.79 390.92ZM2128.84 390.92C2120.52 390.92 2113.22 388.84 2106.92 384.68C2100.63 380.52 2095.72 374.44 2092.2 366.44C2088.68 358.333 2086.92 348.307 2086.92 336.36C2086.92 324.733 2088.68 314.973 2092.2 307.08C2095.72 299.08 2100.63 293.053 2106.92 289C2113.22 284.84 2120.52 282.76 2128.84 282.76C2137.16 282.76 2144.47 284.84 2150.76 289C2157.06 293.053 2161.96 299.08 2165.48 307.08C2169 314.973 2170.76 324.733 2170.76 336.36C2170.76 348.307 2169 358.333 2165.48 366.44C2161.96 374.44 2157.06 380.52 2150.76 384.68C2144.47 388.84 2137.16 390.92 2128.84 390.92ZM2128.84 370.6C2132.47 370.6 2135.62 369.32 2138.28 366.76C2140.95 364.093 2142.98 360.253 2144.36 355.24C2145.86 350.12 2146.6 343.827 2146.6 336.36C2146.6 329.107 2145.86 323.027 2144.36 318.12C2142.98 313.213 2140.95 309.48 2138.28 306.92C2135.62 304.36 2132.47 303.08 2128.84 303.08C2125.22 303.08 2122.07 304.36 2119.4 306.92C2116.74 309.48 2114.66 313.213 2113.16 318.12C2111.78 323.027 2111.08 329.107 2111.08 336.36C2111.08 343.827 2111.78 350.12 2113.16 355.24C2114.66 360.253 2116.74 364.093 2119.4 366.76C2122.07 369.32 2125.22 370.6 2128.84 370.6Z" fill="black"/>
<path d="M345 702C303.517 702 269.409 670.427 265.395 630H915.605C911.591 670.427 877.483 702 836 702H589H345Z" stroke="black" stroke-width="40"/>
<path d="M393 330H785.653V472C785.653 549.32 722.973 612 645.653 612H533C455.68 612 393 549.32 393 472V330Z" stroke="black" stroke-width="40"/>
<path d="M913.177 434.773C888.12 499.891 834.195 521.5 792.168 521.5C784.92 521.5 782.188 520.365 781.467 519.971C781.214 519.401 780.561 517.446 780.536 512.52C780.503 506.055 781.472 498.181 782.792 487.451C782.961 486.07 783.137 484.643 783.317 483.164C784.821 470.818 786.445 456.127 786.445 440C786.445 424.874 786.46 411.586 787.551 399.697C788.642 387.804 790.71 378.752 794.021 371.926C797.111 365.558 801.407 360.831 808.11 357.397C815.224 353.752 826.187 351 843.3 351C855.727 351 867.337 351.031 878.041 352.509C888.708 353.982 896.756 356.697 902.537 360.886C911.856 367.638 922.867 384.319 913.177 434.773ZM781.255 519.838C781.256 519.837 781.268 519.846 781.291 519.865C781.266 519.848 781.254 519.838 781.255 519.838ZM781.555 520.148C781.562 520.157 781.565 520.163 781.565 520.163C781.564 520.163 781.561 520.158 781.555 520.148Z" stroke="black" stroke-width="38"/>
<path d="M463.128 119C441.235 124.971 439.114 153.987 451.792 168.477C463.1 181.399 472.671 196.286 481.049 211.367C497.382 240.766 474.953 257.841 449.341 270.647" stroke="black" stroke-width="30" stroke-linecap="round"/>
<path d="M715.128 119C693.235 124.971 691.114 153.987 703.792 168.477C715.1 181.399 724.671 196.286 733.049 211.367C749.382 240.766 726.953 257.841 701.341 270.647" stroke="black" stroke-width="30" stroke-linecap="round"/>
<path d="M589.128 119C567.235 124.971 565.114 153.987 577.792 168.477C589.1 181.399 598.671 196.286 607.049 211.367C623.382 240.766 600.953 257.841 575.341 270.647" stroke="black" stroke-width="30" stroke-linecap="round"/>
</svg>
