<svg width="1301" height="565" viewBox="0 0 1301 565" fill="none" xmlns="http://www.w3.org/2000/svg">
<rect x="31" width="1239" height="40" fill="black"/>
<rect x="31" y="525" width="1239" height="40" fill="black"/>
<path d="M37.6263 433V328.84H67.0663C77.0929 328.84 85.8396 330.653 93.3063 334.28C100.88 337.8 106.8 343.347 111.066 350.92C115.333 358.493 117.466 368.36 117.466 380.52C117.466 392.573 115.333 402.493 111.066 410.28C106.906 418.067 101.146 423.827 93.7863 427.56C86.4263 431.187 77.9996 433 68.5063 433H37.6263ZM63.2263 412.52H65.6263C70.6396 412.52 75.0663 411.56 78.9063 409.64C82.7463 407.613 85.7329 404.307 87.8663 399.72C90.1063 395.133 91.2263 388.733 91.2263 380.52C91.2263 372.307 90.1063 365.96 87.8663 361.48C85.7329 357 82.7463 353.853 78.9063 352.04C75.0663 350.227 70.6396 349.32 65.6263 349.32H63.2263V412.52ZM136.924 433V328.84H206.844V350.28H162.524V368.84H200.284V390.28H162.524V411.56H208.444V433H136.924ZM266.301 434.92C259.368 434.92 252.381 433.693 245.341 431.24C238.408 428.68 232.061 424.893 226.301 419.88L240.861 402.44C244.915 405.533 249.235 408.04 253.821 409.96C258.515 411.88 263.261 412.84 268.061 412.84C272.648 412.84 275.955 412.147 277.981 410.76C280.115 409.267 281.181 407.453 281.181 405.32C281.181 403.08 280.541 401.32 279.261 400.04C278.088 398.653 276.328 397.48 273.981 396.52C271.635 395.453 268.861 394.28 265.661 393L252.381 387.4C248.435 385.907 244.755 383.88 241.341 381.32C238.035 378.76 235.368 375.613 233.341 371.88C231.315 368.04 230.301 363.613 230.301 358.6C230.301 352.733 231.901 347.453 235.101 342.76C238.408 337.96 242.995 334.12 248.861 331.24C254.728 328.36 261.555 326.92 269.341 326.92C275.528 326.92 281.661 328.093 287.741 330.44C293.928 332.68 299.475 336.093 304.381 340.68L291.581 356.84C287.848 354.28 284.221 352.36 280.701 351.08C277.181 349.693 272.915 349 267.901 349C264.488 349 261.661 349.693 259.421 351.08C257.288 352.36 256.221 354.387 256.221 357.16C256.221 358.973 256.861 360.52 258.141 361.8C259.528 362.973 261.448 364.093 263.901 365.16C266.461 366.12 269.448 367.24 272.861 368.52L285.181 373.64C289.875 375.347 293.821 377.533 297.021 380.2C300.328 382.76 302.835 385.853 304.541 389.48C306.355 393 307.261 397.213 307.261 402.12C307.261 407.987 305.661 413.427 302.461 418.44C299.368 423.347 294.781 427.347 288.701 430.44C282.621 433.427 275.155 434.92 266.301 434.92ZM328.799 433V328.84H398.719V350.28H354.399V368.84H392.159V390.28H354.399V411.56H400.319V433H328.799ZM420.736 433V328.84H446.816L466.496 377.96L475.136 401.16H475.776C475.136 395.507 474.39 389.213 473.536 382.28C472.683 375.24 472.256 368.573 472.256 362.28V328.84H496.576V433H470.496L450.816 383.72L442.176 360.68H441.536C442.176 366.547 442.923 372.947 443.776 379.88C444.63 386.707 445.056 393.213 445.056 399.4V433H420.736ZM539.234 433L508.034 328.84H535.074L546.914 375.88C548.407 381.533 549.74 387.08 550.914 392.52C552.087 397.853 553.42 403.347 554.914 409H555.554C557.047 403.347 558.38 397.853 559.554 392.52C560.727 387.08 562.06 381.533 563.554 375.88L574.914 328.84H601.154L569.954 433H539.234ZM650.531 434.92C642.211 434.92 634.851 432.893 628.451 428.84C622.158 424.68 617.198 418.6 613.571 410.6C610.051 402.493 608.291 392.467 608.291 380.52C608.291 368.787 610.051 358.973 613.571 351.08C617.198 343.08 622.158 337.053 628.451 333C634.851 328.947 642.211 326.92 650.531 326.92C658.851 326.92 666.158 328.947 672.451 333C678.851 337.053 683.811 343.08 687.331 351.08C690.958 358.973 692.771 368.787 692.771 380.52C692.771 392.467 690.958 402.493 687.331 410.6C683.811 418.6 678.851 424.68 672.451 428.84C666.158 432.893 658.851 434.92 650.531 434.92ZM650.531 412.84C653.838 412.84 656.665 411.667 659.011 409.32C661.465 406.867 663.331 403.24 664.611 398.44C665.998 393.64 666.691 387.667 666.691 380.52C666.691 373.587 665.998 367.773 664.611 363.08C663.331 358.387 661.465 354.867 659.011 352.52C656.665 350.173 653.838 349 650.531 349C647.225 349 644.345 350.173 641.891 352.52C639.545 354.867 637.678 358.387 636.291 363.08C635.011 367.773 634.371 373.587 634.371 380.52C634.371 387.667 635.011 393.64 636.291 398.44C637.678 403.24 639.545 406.867 641.891 409.32C644.345 411.667 647.225 412.84 650.531 412.84ZM714.629 433V328.84H740.229V411.56H785.509V433H714.629ZM827.046 433L795.846 328.84H822.886L834.726 375.88C836.22 381.533 837.553 387.08 838.726 392.52C839.9 397.853 841.233 403.347 842.726 409H843.366C844.86 403.347 846.193 397.853 847.366 392.52C848.54 387.08 849.873 381.533 851.366 375.88L862.726 328.84H888.966L857.766 433H827.046ZM904.424 433V328.84H974.344V350.28H930.024V368.84H967.784V390.28H930.024V411.56H975.944V433H904.424ZM997.001 433V328.84H1026.44C1036.47 328.84 1045.21 330.653 1052.68 334.28C1060.25 337.8 1066.17 343.347 1070.44 350.92C1074.71 358.493 1076.84 368.36 1076.84 380.52C1076.84 392.573 1074.71 402.493 1070.44 410.28C1066.28 418.067 1060.52 423.827 1053.16 427.56C1045.8 431.187 1037.37 433 1027.88 433H997.001ZM1022.6 412.52H1025C1030.01 412.52 1034.44 411.56 1038.28 409.64C1042.12 407.613 1045.11 404.307 1047.24 399.72C1049.48 395.133 1050.6 388.733 1050.6 380.52C1050.6 372.307 1049.48 365.96 1047.24 361.48C1045.11 357 1042.12 353.853 1038.28 352.04C1034.44 350.227 1030.01 349.32 1025 349.32H1022.6V412.52ZM1130.22 434.92C1121.9 434.92 1114.54 432.893 1108.14 428.84C1101.85 424.68 1096.89 418.6 1093.26 410.6C1089.74 402.493 1087.98 392.467 1087.98 380.52C1087.98 368.787 1089.74 358.973 1093.26 351.08C1096.89 343.08 1101.85 337.053 1108.14 333C1114.54 328.947 1121.9 326.92 1130.22 326.92C1138.54 326.92 1145.85 328.947 1152.14 333C1158.54 337.053 1163.5 343.08 1167.02 351.08C1170.65 358.973 1172.46 368.787 1172.46 380.52C1172.46 392.467 1170.65 402.493 1167.02 410.6C1163.5 418.6 1158.54 424.68 1152.14 428.84C1145.85 432.893 1138.54 434.92 1130.22 434.92ZM1130.22 412.84C1133.53 412.84 1136.35 411.667 1138.7 409.32C1141.15 406.867 1143.02 403.24 1144.3 398.44C1145.69 393.64 1146.38 387.667 1146.38 380.52C1146.38 373.587 1145.69 367.773 1144.3 363.08C1143.02 358.387 1141.15 354.867 1138.7 352.52C1136.35 350.173 1133.53 349 1130.22 349C1126.91 349 1124.03 350.173 1121.58 352.52C1119.23 354.867 1117.37 358.387 1115.98 363.08C1114.7 367.773 1114.06 373.587 1114.06 380.52C1114.06 387.667 1114.7 393.64 1115.98 398.44C1117.37 403.24 1119.23 406.867 1121.58 409.32C1124.03 411.667 1126.91 412.84 1130.22 412.84ZM1188.4 433V328.84H1226.32C1233.68 328.84 1240.45 329.853 1246.64 331.88C1252.82 333.8 1257.78 337.16 1261.52 341.96C1265.25 346.76 1267.12 353.427 1267.12 361.96C1267.12 370.067 1265.25 376.68 1261.52 381.8C1257.78 386.92 1252.82 390.707 1246.64 393.16C1240.45 395.613 1233.68 396.84 1226.32 396.84H1213.84V433H1188.4ZM1213.84 376.52H1224.4C1230.16 376.52 1234.53 375.293 1237.52 372.84C1240.61 370.387 1242.16 366.76 1242.16 361.96C1242.16 357.053 1240.61 353.693 1237.52 351.88C1234.53 350.067 1230.16 349.16 1224.4 349.16H1213.84V376.52ZM1221.68 390.12L1239.12 373.48L1272.56 433H1244.08L1221.68 390.12Z" fill="black"/>
<path d="M326.419 236V131.68H363.379C370.739 131.68 377.459 132.693 383.539 134.72C389.619 136.64 394.472 140 398.099 144.8C401.832 149.493 403.699 155.947 403.699 164.16C403.699 172.16 401.832 178.667 398.099 183.68C394.472 188.693 389.619 192.427 383.539 194.88C377.459 197.227 370.739 198.4 363.379 198.4H349.939V236H326.419ZM349.939 179.68H361.459C367.645 179.68 372.339 178.4 375.539 175.84C378.845 173.173 380.499 169.28 380.499 164.16C380.499 159.04 378.845 155.467 375.539 153.44C372.339 151.413 367.645 150.4 361.459 150.4H349.939V179.68ZM359.059 192.32L375.379 177.12L408.659 236H382.259L359.059 192.32ZM459.156 237.92C450.836 237.92 443.53 235.84 437.236 231.68C430.943 227.52 426.036 221.44 422.516 213.44C418.996 205.333 417.236 195.307 417.236 183.36C417.236 171.733 418.996 161.973 422.516 154.08C426.036 146.08 430.943 140.053 437.236 136C443.53 131.84 450.836 129.76 459.156 129.76C467.476 129.76 474.783 131.84 481.076 136C487.37 140.053 492.276 146.08 495.796 154.08C499.316 161.973 501.076 171.733 501.076 183.36C501.076 195.307 499.316 205.333 495.796 213.44C492.276 221.44 487.37 227.52 481.076 231.68C474.783 235.84 467.476 237.92 459.156 237.92ZM459.156 217.6C462.783 217.6 465.93 216.32 468.596 213.76C471.263 211.093 473.29 207.253 474.676 202.24C476.17 197.12 476.916 190.827 476.916 183.36C476.916 176.107 476.17 170.027 474.676 165.12C473.29 160.213 471.263 156.48 468.596 153.92C465.93 151.36 462.783 150.08 459.156 150.08C455.53 150.08 452.383 151.36 449.716 153.92C447.05 156.48 444.97 160.213 443.476 165.12C442.09 170.027 441.396 176.107 441.396 183.36C441.396 190.827 442.09 197.12 443.476 202.24C444.97 207.253 447.05 211.093 449.716 213.76C452.383 216.32 455.53 217.6 459.156 217.6ZM518.294 236V131.68H547.094C557.227 131.68 566.027 133.493 573.494 137.12C581.067 140.747 586.934 146.4 591.094 154.08C595.254 161.653 597.334 171.413 597.334 183.36C597.334 195.307 595.254 205.173 591.094 212.96C587.04 220.747 581.334 226.56 573.974 230.4C566.614 234.133 558.134 236 548.534 236H518.294ZM541.974 216.96H545.814C551.36 216.96 556.16 215.893 560.214 213.76C564.267 211.627 567.414 208.107 569.654 203.2C572 198.293 573.174 191.68 573.174 183.36C573.174 175.04 572 168.533 569.654 163.84C567.414 159.04 564.267 155.68 560.214 153.76C556.16 151.733 551.36 150.72 545.814 150.72H541.974V216.96ZM614.231 236V131.68H651.191C658.551 131.68 665.271 132.693 671.351 134.72C677.431 136.64 682.285 140 685.911 144.8C689.645 149.493 691.511 155.947 691.511 164.16C691.511 172.16 689.645 178.667 685.911 183.68C682.285 188.693 677.431 192.427 671.351 194.88C665.271 197.227 658.551 198.4 651.191 198.4H637.751V236H614.231ZM637.751 179.68H649.271C655.458 179.68 660.151 178.4 663.351 175.84C666.658 173.173 668.311 169.28 668.311 164.16C668.311 159.04 666.658 155.467 663.351 153.44C660.151 151.413 655.458 150.4 649.271 150.4H637.751V179.68ZM646.871 192.32L663.191 177.12L696.471 236H670.071L646.871 192.32ZM710.809 236V216.16H735.129V151.52H710.809V131.68H783.129V151.52H758.809V216.16H783.129V236H710.809ZM849.786 237.92C840.933 237.92 832.88 235.947 825.626 232C818.373 227.947 812.613 221.973 808.346 214.08C804.08 206.08 801.946 196.213 801.946 184.48C801.946 172.853 804.08 162.987 808.346 154.88C812.613 146.667 818.373 140.427 825.626 136.16C832.986 131.893 841.146 129.76 850.106 129.76C857.146 129.76 863.173 131.147 868.186 133.92C873.2 136.587 877.36 139.627 880.666 143.04L867.706 157.6C865.466 155.36 863.013 153.547 860.346 152.16C857.68 150.773 854.266 150.08 850.106 150.08C845.626 150.08 841.573 151.467 837.946 154.24C834.32 156.907 831.44 160.747 829.306 165.76C827.28 170.773 826.266 176.747 826.266 183.68C826.266 190.827 827.173 196.96 828.986 202.08C830.8 207.093 833.573 210.933 837.306 213.6C841.04 216.267 845.626 217.6 851.066 217.6C853.093 217.6 855.013 217.333 856.826 216.8C858.746 216.267 860.24 215.467 861.306 214.4V196.48H846.106V177.28H882.426V225.28C878.906 228.587 874.213 231.52 868.346 234.08C862.586 236.64 856.4 237.92 849.786 237.92ZM938.844 237.92C930.524 237.92 923.217 235.84 916.924 231.68C910.63 227.52 905.724 221.44 902.204 213.44C898.684 205.333 896.924 195.307 896.924 183.36C896.924 171.733 898.684 161.973 902.204 154.08C905.724 146.08 910.63 140.053 916.924 136C923.217 131.84 930.524 129.76 938.844 129.76C947.164 129.76 954.47 131.84 960.764 136C967.057 140.053 971.964 146.08 975.484 154.08C979.004 161.973 980.764 171.733 980.764 183.36C980.764 195.307 979.004 205.333 975.484 213.44C971.964 221.44 967.057 227.52 960.764 231.68C954.47 235.84 947.164 237.92 938.844 237.92ZM938.844 217.6C942.47 217.6 945.617 216.32 948.284 213.76C950.95 211.093 952.977 207.253 954.364 202.24C955.857 197.12 956.604 190.827 956.604 183.36C956.604 176.107 955.857 170.027 954.364 165.12C952.977 160.213 950.95 156.48 948.284 153.92C945.617 151.36 942.47 150.08 938.844 150.08C935.217 150.08 932.07 151.36 929.404 153.92C926.737 156.48 924.657 160.213 923.164 165.12C921.777 170.027 921.084 176.107 921.084 183.36C921.084 190.827 921.777 197.12 923.164 202.24C924.657 207.253 926.737 211.093 929.404 213.76C932.07 216.32 935.217 217.6 938.844 217.6Z" fill="black"/>
</svg>
