<svg width="691" height="619" viewBox="0 0 691 619" fill="none" xmlns="http://www.w3.org/2000/svg">
<path d="M100 599C58.5172 599 24.4088 567.427 20.395 527H670.605C666.591 567.427 632.483 599 591 599H344H100Z" stroke="black" stroke-width="40"/>
<path d="M148 227H540.653V369C540.653 446.32 477.973 509 400.653 509H288C210.68 509 148 446.32 148 369V227Z" stroke="black" stroke-width="40"/>
<path d="M668.177 331.773C643.12 396.891 589.196 418.5 547.168 418.5C539.92 418.5 537.188 417.365 536.467 416.971C536.214 416.401 535.561 414.446 535.536 409.52C535.503 403.055 536.472 395.181 537.792 384.451C537.961 383.07 538.137 381.643 538.317 380.164C539.821 367.818 541.445 353.127 541.445 337C541.445 321.874 541.46 308.586 542.551 296.697C543.642 284.804 545.71 275.752 549.021 268.926C552.111 262.558 556.407 257.831 563.11 254.397C570.224 250.752 581.187 248 598.3 248C610.727 248 622.337 248.031 633.041 249.509C643.708 250.982 651.756 253.697 657.537 257.886C666.856 264.638 677.867 281.319 668.177 331.773ZM536.255 416.838C536.256 416.837 536.268 416.846 536.291 416.865C536.266 416.848 536.254 416.838 536.255 416.838ZM536.555 417.148C536.562 417.157 536.565 417.163 536.565 417.163C536.564 417.163 536.561 417.158 536.555 417.148Z" stroke="black" stroke-width="38"/>
<path d="M218.128 16C196.235 21.9708 194.114 50.9871 206.792 65.4766C218.1 78.3992 227.671 93.2859 236.049 108.367C252.382 137.766 229.953 154.841 204.341 167.647" stroke="black" stroke-width="30" stroke-linecap="round"/>
<path d="M470.128 16C448.235 21.9708 446.114 50.9871 458.792 65.4766C470.1 78.3992 479.671 93.2859 488.049 108.367C504.382 137.766 481.953 154.841 456.341 167.647" stroke="black" stroke-width="30" stroke-linecap="round"/>
<path d="M344.128 16C322.235 21.9708 320.114 50.9871 332.792 65.4766C344.1 78.3992 353.671 93.2859 362.049 108.367C378.382 137.766 355.953 154.841 330.341 167.647" stroke="black" stroke-width="30" stroke-linecap="round"/>
</svg>
